<?xml version="1.0" encoding="UTF-8"?><svg id="Layer_2" xmlns="http://www.w3.org/2000/svg" viewBox="0 0 137.9601 106.1017"><defs><style>.cls-1{fill:#3c3c3c;}</style></defs><g id="Graphic_Elements"><g><path class="cls-1" d="m135.8817,98.3236c.2226-.8742.4274-1.7529.6145-2.6354-42.9693-11.5583-85.3809-6.8954-94.7297,10.4135,9.3488-17.3089,51.4852-20.7919,94.1152-7.7781Z"/><path class="cls-1" d="m137.1752,91.9711c.1374-.8925.2569-1.7881.3587-2.6865-43.5425-8.0216-86.4186-.4918-95.7674,16.8171,9.3488-17.3089,52.0644-23.636,95.4087-14.1306Z"/><path class="cls-1" d="m137.8564,85.5081c.0523-.9045.0868-1.8111.1037-2.7192-43.7778-4.434-86.8448,6.0039-96.1936,23.3128,9.3488-17.3089,52.3693-26.5295,96.0899-20.5936Z"/><path class="cls-1" d="m137.9279,78.9768c-.0324-.9119-.0823-1.8247-.1498-2.7378-43.6774-.8166-86.6628,12.5538-96.0116,29.8627,9.3488-17.3089,52.4013-29.4536,96.1614-27.1249Z"/><path class="cls-1" d="m137.3924,72.4148c-.1166-.9131-.2507-1.8259-.4024-2.7378-43.2421,2.8075-85.8747,19.1158-95.2235,36.4247,9.3488-17.3089,52.1616-32.3914,95.6259-33.6869Z"/><path class="cls-1" d="m136.2526,65.8644c-.2005-.9086-.4185-1.8158-.6539-2.7209-42.4737,6.416-84.4834,25.6493-93.8322,42.9582,9.3488-17.3089,51.6513-35.3241,94.4861-40.2373Z"/><path class="cls-1" d="m134.5116,59.3677c-.284-.8985-.5854-1.7943-.9042-2.6871-41.3739,9.9855-82.4921,32.1122-91.8409,49.4211,9.3488-17.3089,50.8718-38.2327,92.7451-46.734Z"/><path class="cls-1" d="m132.1713,52.9625c-.3672-.8828-.7516-1.7618-1.1535-2.6363-39.9437,13.4949-79.9025,38.4666-89.2513,55.7755,9.3488-17.3089,49.824-41.1004,90.4048-53.1392Z"/><path class="cls-1" d="m129.2347,46.6908c-.45-.8614-.9172-1.7178-1.4015-2.5686-38.1849,16.9214-76.7179,44.6706-86.0667,61.9795,9.3488-17.3089,48.5093-43.9082,87.4682-59.4109Z"/><path class="cls-1" d="m125.7053,40.5947c-.5324-.8343-1.0818-1.6624-1.6484-2.4839-36.0992,20.2414-72.9416,50.682-82.2904,67.9909,9.3488-17.3089,46.9291-46.6375,83.9388-65.507Z"/><path class="cls-1" d="m121.5843,34.7121c-.6143-.8016-1.2458-1.5958-1.8943-2.382-33.6873,23.434-68.5747,56.4627-77.9235,73.7716,9.3488-17.3089,45.0842-49.2711,79.8178-71.3896Z"/><path class="cls-1" d="m116.8751,29.0852c-.696-.7633-1.409-1.5178-2.139-2.2633-30.9514,26.4762-63.6208,61.9709-72.9696,79.2798,9.3488-17.3089,42.9758-51.7903,75.1086-77.0165Z"/><path class="cls-1" d="m111.5803,23.7545c-.1421-.1314-.2847-.2624-.4278-.3932-.6399-.5845-1.2863-1.158-1.939-1.7206-27.9013,29.3377-58.0982,67.1521-67.447,84.461,9.3488-17.3089,40.6053-54.1769,69.8138-82.3472Z"/><path class="cls-1" d="m103.3145,16.9711c-24.6433,31.9167-52.1992,71.8217-61.548,89.1306,9.3488-17.3089,38.0234-56.372,64.0468-87.25-.8245-.6433-1.6575-1.2701-2.4988-1.8806Z"/><path class="cls-1" d="m97.1344,12.866c-21.2301,34.1839-46.0191,75.9268-55.3679,93.2357,9.3488-17.3089,35.3067-58.3154,57.9789-91.5908-.863-.5647-1.7336-1.113-2.611-1.6449Z"/><path class="cls-1" d="m90.7165,9.3262c-17.6856,36.1389-39.6012,79.4666-48.95,96.7755,9.3488-17.3089,32.4755-60.0059,51.6549-95.3668-.8957-.4859-1.7975-.9556-2.7049-1.4087Z"/><path class="cls-1" d="m84.1051,6.3535c-14.0341,37.7807-32.9898,82.4393-42.3386,99.7482,9.3488-17.3089,29.5495-61.4427,45.1196-98.5761-.9223-.4072-1.8494-.7979-2.781-1.1721Z"/><path class="cls-1" d="m77.3404,3.9478c-10.298,39.1094-26.2251,84.845-35.5739,102.1539,9.3488-17.3089,26.547-62.6259,38.4131-101.2189-.9429-.3282-1.8895-.6399-2.8392-.935Z"/><path class="cls-1" d="m70.4668,2.1107c-6.5017,40.1239-19.3515,86.6821-28.7003,103.991,9.3488-17.3089,23.4877-63.5547,31.5798-103.2935-.9576-.249-1.9176-.4815-2.8795-.6975Z"/><path class="cls-1" d="m63.5292.8436c-2.6702,40.8238-12.4139,87.9492-21.7627,105.2581,9.3488-17.3089,20.3909-64.2287,24.6627-104.7987-.9657-.1697-1.9325-.3228-2.9-.4594Z"/><path class="cls-1" d="m56.5673.1472c1.1749,41.2085-5.452,88.6456-14.8008,105.9545C51.1153,88.7928,59.0432,41.4546,59.4731.3684c-.9688-.0903-1.9376-.164-2.9058-.2212Z"/><path class="cls-1" d="m52.5179.0052c-.9655-.0108-1.9297-.0048-2.892.0177,5.0086,41.2771,1.4894,88.7699-7.8594,106.0788C51.1153,88.7928,55.9292,41.292,52.5179.0052Z"/><path class="cls-1" d="m45.6083.2146c-.9562.0691-1.9098.1548-2.8604.2571,8.8072,41.0292,8.3674,88.3211-.9814,105.63,9.3488-17.3089,11.0693-64.7159,3.8418-105.8871Z"/><path class="cls-1" d="m38.7886.9976c-.9408.149-1.8778.3146-2.8106.4969,12.5462,40.4643,15.1373,87.2983,5.7885,104.6072,9.3488-17.3089,8.0161-64.3653-2.9779-105.1041Z"/><path class="cls-1" d="m32.0993,2.3557c-.9196.229-1.8342.4748-2.743.7373,16.2033,39.5814,21.759,85.6998,12.4102,103.0087,9.3488-17.3089,5.0212-63.7573-9.6672-103.746Z"/><path class="cls-1" d="m25.5844,4.2899c-.8922.3092-1.7782.6352-2.6572.9779,19.754,38.3804,28.1881,83.525,18.8393,100.8339,9.3488-17.3089,2.1044-62.8913-16.1821-101.8118Z"/><path class="cls-1" d="m19.2888,6.8005c-.8589.3897-1.7104.796-2.5536,1.2192,23.1738,36.8605,34.3801,80.7731,25.0313,98.082,9.3488-17.3089-.7142-61.7673-22.4777-99.3012Z"/><path class="cls-1" d="m13.2526,9.89c-.8197.4701-1.6305.957-2.4321,1.4608,26.4405,35.0208,40.2948,77.442,30.946,94.7509,9.3488-17.3089-3.4167-60.3842-28.5139-96.2117Z"/><path class="cls-1" d="m7.5203,13.5587c-.7745.5509-1.5388,1.1185-2.2925,1.7031,29.5294,32.8607,45.8875,73.531,36.5387,90.8399,9.3488-17.3089-5.983-58.7416-34.2462-92.543Z"/><path class="cls-1" d="m2.1349,17.8081c-.7231.6317-1.4349,1.2801-2.1349,1.9456,32.4166,30.3799,51.1153,69.0391,41.7665,86.348,9.3488-17.3089-8.394-56.8392-39.6316-88.2936Z"/></g></g></svg>