<?xml version="1.0" encoding="UTF-8"?><svg id="Layer_2" xmlns="http://www.w3.org/2000/svg" viewBox="0 0 130.8184 130.8184"><defs><style>.cls-1{opacity:.9;}.cls-2{fill:none;stroke:#3c3c3c;stroke-miterlimit:10;stroke-width:2px;}</style></defs><g id="Graphic_Elements"><g class="cls-1"><ellipse class="cls-2" cx="65.4092" cy="65.4092" rx="28.0601" ry="64.4597" transform="translate(-27.0934 65.4092) rotate(-45)"/><ellipse class="cls-2" cx="59.5351" cy="71.2834" rx="28.0601" ry="64.4597" transform="translate(-32.9675 62.9762) rotate(-45.0001)"/><ellipse class="cls-2" cx="68.3463" cy="62.4721" rx="28.0602" ry="64.4596" transform="translate(-24.1563 66.6258) rotate(-45)"/><ellipse class="cls-2" cx="74.2204" cy="56.598" rx="28.0601" ry="64.4597" transform="translate(-18.2822 69.0589) rotate(-45)"/><ellipse class="cls-2" cx="77.1575" cy="53.6609" rx="28.0602" ry="64.4597" transform="translate(-15.3451 70.2755) rotate(-45)"/><ellipse class="cls-2" cx="71.2833" cy="59.5351" rx="28.0601" ry="64.4597" transform="translate(-21.2192 67.8424) rotate(-45.0001)"/><ellipse class="cls-2" cx="62.4722" cy="68.3463" rx="28.0601" ry="64.4596" transform="translate(-30.0304 64.1926) rotate(-45)"/><ellipse class="cls-2" cx="50.7239" cy="80.0946" rx="28.0601" ry="64.4596" transform="translate(-41.7787 59.3263) rotate(-45)"/><ellipse class="cls-2" cx="56.598" cy="74.2204" rx="28.0602" ry="64.4596" transform="translate(-35.9046 61.7595) rotate(-45)"/><ellipse class="cls-2" cx="53.6609" cy="77.1575" rx="28.0601" ry="64.4596" transform="translate(-38.8416 60.5428) rotate(-44.9999)"/><ellipse class="cls-2" cx="80.0945" cy="50.7238" rx="28.0601" ry="64.4596" transform="translate(-12.408 71.492) rotate(-45)"/></g></g></svg>