<?xml version="1.0" encoding="UTF-8"?><svg id="Layer_2" xmlns="http://www.w3.org/2000/svg" viewBox="0 0 120.286 118.4217"><defs><style>.cls-1{fill:#3c3c3c;}.cls-2{opacity:.9;}</style></defs><g id="Graphic_Elements"><g class="cls-2"><g><path class="cls-1" d="m109.8241,113.1907c0-2.889,2.3419-5.2309,5.231-5.2309s5.2309,2.342,5.2309,5.2309-2.342,5.231-5.2309,5.231-5.231-2.342-5.231-5.231Z"/><path class="cls-1" d="m110.3455,99.1743c0-2.601,2.1086-4.7095,4.7096-4.7095s4.7094,2.1085,4.7094,4.7095-2.1084,4.7095-4.7094,4.7095-4.7096-2.1085-4.7096-4.7095Z"/><circle class="cls-1" cx="115.0551" cy="85.1579" r="4.1881"/><path class="cls-1" d="m111.3883,71.1415c0-2.025,1.6417-3.6666,3.6668-3.6666s3.6666,1.6416,3.6666,3.6666-1.6416,3.6667-3.6666,3.6667-3.6668-1.6416-3.6668-3.6667Z"/><path class="cls-1" d="m111.9098,57.1252c0-1.7371,1.4082-3.1453,3.1453-3.1453s3.1452,1.4082,3.1452,3.1453-1.4082,3.1452-3.1452,3.1452-3.1453-1.4082-3.1453-3.1452Z"/><path class="cls-1" d="m112.4312,43.1087c0-1.4491,1.1747-2.6238,2.6239-2.6238s2.6237,1.1747,2.6237,2.6238-1.1747,2.6238-2.6237,2.6238-2.6239-1.1747-2.6239-2.6238Z"/><path class="cls-1" d="m112.9527,29.0923c0-1.1611.9412-2.1024,2.1024-2.1024s2.1023.9413,2.1023,2.1024-.9413,2.1024-2.1023,2.1024-2.1024-.9413-2.1024-2.1024Z"/><path class="cls-1" d="m113.4741,15.0759c0-.8731.7078-1.5809,1.581-1.5809s1.5808.7078,1.5808,1.5809-.7077,1.581-1.5808,1.581-1.581-.7079-1.581-1.581Z"/><path class="cls-1" d="m113.9955,1.0595c0-.5851.4744-1.0595,1.0596-1.0595s1.0595.4744,1.0595,1.0595-.4744,1.0595-1.0595,1.0595-1.0596-.4744-1.0596-1.0595Z"/></g><g><circle class="cls-1" cx="99.3659" cy="113.1907" r="5.2309" transform="translate(-24.1915 199.3261) rotate(-83.6028)"/><path class="cls-1" d="m94.6563,99.1743c0-2.601,2.1086-4.7095,4.7096-4.7095s4.7095,2.1085,4.7095,4.7095-2.1085,4.7095-4.7095,4.7095-4.7096-2.1085-4.7096-4.7095Z"/><circle class="cls-1" cx="99.3659" cy="85.1579" r="4.1881"/><path class="cls-1" d="m95.6992,71.1415c0-2.025,1.6416-3.6666,3.6667-3.6666s3.6666,1.6416,3.6666,3.6666-1.6416,3.6667-3.6666,3.6667-3.6667-1.6416-3.6667-3.6667Z"/><path class="cls-1" d="m96.2207,57.1252c0-1.7371,1.4081-3.1453,3.1452-3.1453s3.1452,1.4082,3.1452,3.1453-1.4081,3.1452-3.1452,3.1452-3.1452-1.4082-3.1452-3.1452Z"/><circle class="cls-1" cx="99.3659" cy="43.1087" r="2.6238"/><circle class="cls-1" cx="99.3659" cy="29.0923" r="2.1024"/><path class="cls-1" d="m97.7849,15.0759c0-.8731.7079-1.5809,1.581-1.5809s1.5809.7078,1.5809,1.5809-.7078,1.581-1.5809,1.581-1.581-.7079-1.581-1.581Z"/><circle class="cls-1" cx="99.3659" cy="1.0595" r="1.0595"/></g><g><path class="cls-1" d="m78.4458,113.1907c0-2.889,2.3419-5.2309,5.231-5.2309s5.2309,2.342,5.2309,5.2309-2.342,5.231-5.2309,5.231-5.231-2.342-5.231-5.231Z"/><path class="cls-1" d="m78.9672,99.1743c0-2.601,2.1085-4.7095,4.7096-4.7095s4.7094,2.1085,4.7094,4.7095-2.1084,4.7095-4.7094,4.7095-4.7096-2.1085-4.7096-4.7095Z"/><circle class="cls-1" cx="83.6768" cy="85.1579" r="4.1881"/><path class="cls-1" d="m80.01,71.1415c0-2.025,1.6417-3.6666,3.6668-3.6666s3.6666,1.6416,3.6666,3.6666-1.6416,3.6667-3.6666,3.6667-3.6668-1.6416-3.6668-3.6667Z"/><path class="cls-1" d="m80.5315,57.1252c0-1.7371,1.4082-3.1453,3.1453-3.1453s3.1452,1.4082,3.1452,3.1453-1.4082,3.1452-3.1452,3.1452-3.1453-1.4082-3.1453-3.1452Z"/><path class="cls-1" d="m81.0529,43.1087c0-1.4491,1.1747-2.6238,2.6239-2.6238s2.6237,1.1747,2.6237,2.6238-1.1747,2.6238-2.6237,2.6238-2.6239-1.1747-2.6239-2.6238Z"/><path class="cls-1" d="m81.5744,29.0923c0-1.1611.9412-2.1024,2.1024-2.1024s2.1023.9413,2.1023,2.1024-.9413,2.1024-2.1023,2.1024-2.1024-.9413-2.1024-2.1024Z"/><path class="cls-1" d="m82.0958,15.0759c0-.8731.7078-1.5809,1.581-1.5809s1.5808.7078,1.5808,1.5809-.7077,1.581-1.5808,1.581-1.581-.7079-1.581-1.581Z"/><path class="cls-1" d="m82.6172,1.0595c0-.5851.4744-1.0595,1.0596-1.0595s1.0595.4744,1.0595,1.0595-.4744,1.0595-1.0595,1.0595-1.0596-.4744-1.0596-1.0595Z"/></g><g><circle class="cls-1" cx="67.9876" cy="113.1907" r="5.2309" transform="translate(-52.0736 168.1432) rotate(-83.6028)"/><path class="cls-1" d="m63.278,99.1743c0-2.601,2.1086-4.7095,4.7096-4.7095s4.7095,2.1085,4.7095,4.7095-2.1085,4.7095-4.7095,4.7095-4.7096-2.1085-4.7096-4.7095Z"/><circle class="cls-1" cx="67.9876" cy="85.1579" r="4.1881"/><path class="cls-1" d="m64.3209,71.1415c0-2.025,1.6416-3.6666,3.6667-3.6666s3.6666,1.6416,3.6666,3.6666-1.6416,3.6667-3.6666,3.6667-3.6667-1.6416-3.6667-3.6667Z"/><path class="cls-1" d="m64.8423,57.1252c0-1.7371,1.4082-3.1453,3.1453-3.1453s3.1452,1.4082,3.1452,3.1453-1.4081,3.1452-3.1452,3.1452-3.1453-1.4082-3.1453-3.1452Z"/><circle class="cls-1" cx="67.9876" cy="43.1087" r="2.6238"/><circle class="cls-1" cx="67.9876" cy="29.0923" r="2.1024"/><path class="cls-1" d="m66.4066,15.0759c0-.8731.7078-1.5809,1.581-1.5809s1.5809.7078,1.5809,1.5809-.7078,1.581-1.5809,1.581-1.581-.7079-1.581-1.581Z"/><path class="cls-1" d="m66.928,1.0595c0-.5851.4744-1.0595,1.0596-1.0595s1.0595.4744,1.0595,1.0595-.4744,1.0595-1.0595,1.0595-1.0596-.4744-1.0596-1.0595Z"/></g><g><path class="cls-1" d="m47.0675,113.1907c0-2.889,2.3419-5.2309,5.2309-5.2309s5.231,2.342,5.231,5.2309-2.342,5.231-5.231,5.231-5.2309-2.342-5.2309-5.231Z"/><circle class="cls-1" cx="52.2984" cy="99.1743" r="4.7095" transform="translate(-3.7674 2.0801) rotate(-2.1993)"/><circle class="cls-1" cx="52.2984" cy="85.1579" r="4.1881"/><path class="cls-1" d="m48.6317,71.1415c0-2.025,1.6417-3.6666,3.6667-3.6666s3.6667,1.6416,3.6667,3.6666-1.6416,3.6667-3.6667,3.6667-3.6667-1.6416-3.6667-3.6667Z"/><path class="cls-1" d="m49.1532,57.1252c0-1.7371,1.4081-3.1453,3.1452-3.1453s3.1453,1.4082,3.1453,3.1453-1.4082,3.1452-3.1453,3.1452-3.1452-1.4082-3.1452-3.1452Z"/><circle class="cls-1" cx="52.2984" cy="43.1087" r="2.6238"/><circle class="cls-1" cx="52.2984" cy="29.0923" r="2.1024"/><path class="cls-1" d="m50.7175,15.0759c0-.8731.7078-1.5809,1.5809-1.5809s1.581.7078,1.581,1.5809-.7078,1.581-1.581,1.581-1.5809-.7079-1.5809-1.581Z"/><path class="cls-1" d="m51.2389,1.0595c0-.5851.4744-1.0595,1.0595-1.0595s1.0596.4744,1.0596,1.0595-.4745,1.0595-1.0596,1.0595-1.0595-.4744-1.0595-1.0595Z"/></g><g><path class="cls-1" d="m31.3783,113.1907c0-2.889,2.342-5.2309,5.231-5.2309s5.2309,2.342,5.2309,5.2309-2.3419,5.231-5.2309,5.231-5.231-2.342-5.231-5.231Z"/><path class="cls-1" d="m31.8997,99.1743c0-2.601,2.1085-4.7095,4.7096-4.7095s4.7095,2.1085,4.7095,4.7095-2.1085,4.7095-4.7095,4.7095-4.7096-2.1085-4.7096-4.7095Z"/><circle class="cls-1" cx="36.6093" cy="85.1579" r="4.1881"/><path class="cls-1" d="m32.9426,71.1415c0-2.025,1.6416-3.6666,3.6667-3.6666s3.6666,1.6416,3.6666,3.6666-1.6416,3.6667-3.6666,3.6667-3.6667-1.6416-3.6667-3.6667Z"/><path class="cls-1" d="m33.464,57.1252c0-1.7371,1.4082-3.1453,3.1453-3.1453s3.1452,1.4082,3.1452,3.1453-1.4081,3.1452-3.1452,3.1452-3.1453-1.4082-3.1453-3.1452Z"/><circle class="cls-1" cx="36.6093" cy="43.1087" r="2.6238"/><circle class="cls-1" cx="36.6093" cy="29.0923" r="2.1024"/><path class="cls-1" d="m35.0283,15.0759c0-.8731.7078-1.5809,1.581-1.5809s1.5809.7078,1.5809,1.5809-.7078,1.581-1.5809,1.581-1.581-.7079-1.581-1.581Z"/><path class="cls-1" d="m35.5497,1.0595c0-.5851.4744-1.0595,1.0596-1.0595s1.0595.4744,1.0595,1.0595-.4744,1.0595-1.0595,1.0595-1.0596-.4744-1.0596-1.0595Z"/></g><g><circle class="cls-1" cx="20.9201" cy="113.1907" r="5.2309" transform="translate(-93.8968 121.3688) rotate(-83.6028)"/><circle class="cls-1" cx="20.9201" cy="99.1743" r="4.7095" transform="translate(-3.7905 .8759) rotate(-2.1993)"/><circle class="cls-1" cx="20.9201" cy="85.1579" r="4.1881"/><path class="cls-1" d="m17.2534,71.1415c0-2.025,1.6417-3.6666,3.6667-3.6666s3.6667,1.6416,3.6667,3.6666-1.6416,3.6667-3.6667,3.6667-3.6667-1.6416-3.6667-3.6667Z"/><path class="cls-1" d="m17.7748,57.1252c0-1.7371,1.4082-3.1453,3.1453-3.1453s3.1453,1.4082,3.1453,3.1453-1.4082,3.1452-3.1453,3.1452-3.1453-1.4082-3.1453-3.1452Z"/><circle class="cls-1" cx="20.9201" cy="43.1087" r="2.6238"/><circle class="cls-1" cx="20.9201" cy="29.0923" r="2.1024"/><path class="cls-1" d="m19.3392,15.0759c0-.8731.7077-1.5809,1.5809-1.5809s1.581.7078,1.581,1.5809-.7078,1.581-1.581,1.581-1.5809-.7079-1.5809-1.581Z"/><circle class="cls-1" cx="20.9201" cy="1.0595" r="1.0595"/></g><g><path class="cls-1" d="m0,113.1907c0-2.889,2.342-5.2309,5.2309-5.2309s5.231,2.342,5.231,5.2309-2.3419,5.231-5.231,5.231-5.2309-2.342-5.2309-5.231Z"/><path class="cls-1" d="m.5214,99.1743c0-2.601,2.1085-4.7095,4.7095-4.7095s4.7096,2.1085,4.7096,4.7095-2.1085,4.7095-4.7096,4.7095-4.7095-2.1085-4.7095-4.7095Z"/><circle class="cls-1" cx="5.2309" cy="85.1579" r="4.1881"/><path class="cls-1" d="m1.5643,71.1415c0-2.025,1.6416-3.6666,3.6666-3.6666s3.6667,1.6416,3.6667,3.6666-1.6416,3.6667-3.6667,3.6667-3.6666-1.6416-3.6666-3.6667Z"/><path class="cls-1" d="m2.0857,57.1252c0-1.7371,1.4082-3.1453,3.1452-3.1453s3.1453,1.4082,3.1453,3.1453-1.4082,3.1452-3.1453,3.1452-3.1452-1.4082-3.1452-3.1452Z"/><path class="cls-1" d="m2.6072,43.1087c0-1.4491,1.1747-2.6238,2.6237-2.6238s2.6239,1.1747,2.6239,2.6238-1.1748,2.6238-2.6239,2.6238-2.6237-1.1747-2.6237-2.6238Z"/><circle class="cls-1" cx="5.2309" cy="29.0923" r="2.1024"/><path class="cls-1" d="m3.65,15.0759c0-.8731.7078-1.5809,1.5809-1.5809s1.581.7078,1.581,1.5809-.7078,1.581-1.581,1.581-1.5809-.7079-1.5809-1.581Z"/><path class="cls-1" d="m4.1714,1.0595c0-.5851.4744-1.0595,1.0595-1.0595s1.0596.4744,1.0596,1.0595-.4744,1.0595-1.0596,1.0595-1.0595-.4744-1.0595-1.0595Z"/></g></g></g></svg>