<?xml version="1.0" encoding="UTF-8"?><svg id="Layer_2" xmlns="http://www.w3.org/2000/svg" viewBox="0 0 131.0091 131.089"><defs><style>.cls-1{fill:none;stroke:#3c3c3c;stroke-miterlimit:10;}.cls-2{opacity:.9;}</style></defs><g id="Graphic_Elements"><g class="cls-2"><ellipse class="cls-1" cx="65.5046" cy="65.5445" rx="65.0046" ry="65.0446"/><path class="cls-1" d="m129.0205,64.1424c.0504,3.2672-.0688,6.4472-.4486,9.5767-.947,7.751-3.4301,15.1874-7.1981,21.8104-2.4758,4.3449-5.3877,8.3318-8.5528,12.0423-3.2024,3.7542-6.7869,7.11-10.8777,10.0181-4.7766,3.3947-10.1133,6.0912-15.8422,7.886-3.8955,1.2242-7.9372,2.0421-12.0672,2.4477-2.6311.2553-5.298.3342-8.0161.2765-3.6825-.0782-7.3104-.4308-10.853-1.0301-2.0491-.347-4.0662-.774-6.0446-1.2895-9.4922-2.4887-18.2468-6.9637-25.3321-13.4607-2.233-2.0476-4.3225-4.2482-6.2868-6.5738-2.3377-2.7679-4.494-5.691-6.3947-8.7605-1.8897-3.0509-3.5206-6.2554-4.8912-9.612-1.1395-2.7906-2.0679-5.686-2.7473-8.6744-1.0108-4.4318-1.4794-9.0648-1.3876-13.8121.0648-3.7391.4552-7.4013,1.0911-10.9818,1.7638-9.9261,5.3656-19.0549,11.0313-26.9218,3.9301-5.4453,8.804-10.1835,14.2997-14.0261,5.4531-3.812,11.5253-6.7591,18.0314-8.7515,6.1028-1.8673,12.6028-2.9213,19.2867-3.0231,11.0296-.1679,21.413,2.5693,30.5188,7.4898,9.2103,4.987,17.0461,12.244,22.6894,21.045,6.3548,9.9145,9.7969,21.7114,9.9916,34.3249Z"/><path class="cls-1" d="m127.5318,62.7403c.1014,3.2147.1111,6.3122-.1688,9.3847-.7052,7.6037-3.0633,15.0435-6.8397,21.59-2.4957,4.3132-5.3717,8.2213-8.3385,11.9687-2.9801,3.7642-6.2925,7.1379-10.2649,10.0951-4.6377,3.451-9.9147,6.1616-15.6206,7.8508-3.8702,1.153-7.8679,1.8566-11.9168,2.1387-2.5828.1739-5.1856.1586-7.8515.0429-3.583-.1557-7.1331-.5385-10.6137-1.1171-2.0106-.3347-3.991-.73-5.9331-1.2075-9.2858-2.3135-18.0031-6.4067-24.8528-12.92-2.1445-2.0393-4.15-4.2217-6.071-6.5084-2.2863-2.7218-4.4451-5.5482-6.358-8.4916-1.9023-2.9257-3.5501-5.9854-4.9678-9.2048-1.1859-2.693-2.1481-5.4965-2.8292-8.4052-1.0193-4.3245-1.4188-8.8729-1.2444-13.527.1369-3.6544.5807-7.2327,1.22-10.7511,1.7752-9.7611,4.9024-18.7257,10.4055-26.5366,3.8098-5.3849,8.6614-10.0171,14.1021-13.7118,5.4002-3.6656,11.3946-6.4415,17.8006-8.3353,6.0133-1.7749,12.4192-2.8251,18.9477-3.0293,10.6765-.334,20.746,2.2119,29.6532,6.9104,8.9883,4.7607,16.6601,11.7845,22.1199,20.3603,6.1535,9.6734,9.2358,21.1681,9.6218,33.4041Z"/><path class="cls-1" d="m126.0431,61.3382c.153,3.1627.291,6.1772.1109,9.1928-.4633,7.4564-2.6963,14.8994-6.4812,21.3695-2.5156,4.2814-5.3556,8.1087-8.1243,11.8952-2.7579,3.7719-5.798,7.1657-9.6519,10.1721-4.499,3.5072-9.7162,6.232-15.3992,7.8155-3.845,1.0817-7.7986,1.6711-11.7664,1.8298-2.5342.0924-5.0727-.0166-7.6868-.1909-3.4831-.2322-6.9559-.6461-10.3745-1.2039-1.9719-.3226-3.9167-.6817-5.8215-1.1256-9.0844-2.1173-17.7597-5.8483-24.3735-12.3793-2.0562-2.0304-3.9775-4.1951-5.8551-6.443-2.235-2.6758-4.3963-5.4054-6.3213-8.2228-1.9151-2.8004-3.5806-5.7156-5.0444-8.7975-1.233-2.5959-2.2284-5.3071-2.9113-8.136-1.0276-4.2171-1.3631-8.6809-1.1011-13.242.205-3.5695.7061-7.0639,1.3488-10.5204,1.7867-9.5961,4.4394-18.3964,9.7799-26.1512,3.6894-5.3246,8.5187-9.8507,13.9044-13.3976,5.3473-3.5193,11.264-6.124,17.5698-7.9191,5.9238-1.6824,12.2348-2.728,18.6087-3.0355,10.3224-.4981,20.0789,1.8544,28.7876,6.3308,8.7664,4.5346,16.2742,11.3252,21.5503,19.6758,5.9525,9.4321,8.6787,20.6262,9.2521,32.4833Z"/><path class="cls-1" d="m124.5544,59.9362c.2053,3.1111.4709,6.0421.3905,9.0008-.2214,7.309-2.3293,14.7553-6.1227,21.149-2.5354,4.2497-5.3396,7.9937-7.9099,11.8216-2.5363,3.7773-5.3036,7.1936-9.039,10.2491-4.3602,3.5636-9.5178,6.3025-15.1778,7.7804-3.8197,1.0104-7.7291,1.4945-11.6159,1.5207-2.4857.0168-4.9596-.1911-7.5222-.4245-3.3828-.308-6.7786-.7537-10.1352-1.2909-1.9333-.3103-3.8417-.6363-5.7101-1.0437-8.879-1.9358-17.5164-5.2886-23.8941-11.8385-1.968-2.0212-3.8049-4.1687-5.6392-6.3776-2.1837-2.6298-4.3475-5.2627-6.2847-7.9538-1.9278-2.6753-3.6121-5.4462-5.1211-8.3904-1.2807-2.499-2.3085-5.1176-2.9931-7.8668-1.0361-4.1097-1.3079-8.4887-.9579-12.957.2729-3.4846.8316-6.8951,1.4777-10.2896,1.7982-9.4311,3.9763-18.0671,9.154-25.766,3.5693-5.2641,8.3761-9.6843,13.7069-13.0833,5.2943-3.3729,11.1334-5.8064,17.339-7.503,5.8343-1.5899,12.0497-2.6298,18.2696-3.0417,9.9675-.6598,19.412,1.497,27.9221,5.7513,8.5444,4.3086,15.8883,10.8659,20.9808,18.9914,5.7513,9.1908,8.1254,20.0855,8.8823,31.5625Z"/><path class="cls-1" d="m123.0658,58.534c.2582,3.0601.6507,5.9072.6702,8.809.0204,7.1616-1.9624,14.6113-5.7644,20.9284-2.5552,4.218-5.3239,7.8765-7.6955,11.7482-2.3156,3.7801-4.8092,7.2213-8.4261,10.326-4.2214,3.6199-9.3193,6.373-14.9563,7.7452-3.7945.9392-7.6602,1.3108-11.4655,1.2118-2.4376-.0635-4.8461-.3653-7.3576-.6583-3.2821-.3828-6.6013-.8613-9.896-1.3778-1.8946-.298-3.7665-.591-5.5985-.9617-8.6734-1.7549-17.2736-4.7277-23.4148-11.2979-1.8801-2.0114-3.6324-4.1421-5.4234-6.3122-2.1323-2.5837-4.2986-5.1198-6.2479-7.6849-1.9406-2.5501-3.6448-5.1768-5.1978-7.9831-1.3294-2.4024-2.3887-4.9282-3.075-7.5976-1.0446-4.0024-1.2529-8.2965-.8148-12.672.3405-3.3995.9572-6.7264,1.6066-10.0588,1.8098-9.2661,3.4956-17.7495,8.5284-25.3808,3.4369-5.2116,8.2334-9.5179,13.5092-12.7691,5.2414-3.2264,11.0027-5.4888,17.1082-7.0867,5.7448-1.4974,11.8638-2.5307,17.9305-3.0478,9.6117-.8193,18.7539,1.1214,27.0566,5.1717,8.3313,4.0643,15.5023,10.4065,20.4114,18.3068,5.5499,8.9497,7.5764,19.546,8.5125,30.6416Z"/><path class="cls-1" d="m121.5771,57.132c.312,3.0093.8371,5.7718.9499,8.617.2781,7.0137-1.5955,14.4672-5.4059,20.7079-2.5751,4.1862-5.3091,7.7567-7.4813,11.6747-2.096,3.7805-4.3147,7.2491-7.8131,10.4029-4.0827,3.6762-9.1237,6.431-14.7349,7.7101-3.7711.8596-7.5914,1.1268-11.315.9027-2.3895-.1439-4.7323-.5386-7.1929-.8919-3.1811-.4567-6.4241-.969-9.6568-1.4647-1.8561-.2859-3.6913-.5459-5.4871-.8798-8.4674-1.5744-17.0313-4.1651-22.9354-10.7572-1.7923-2.0012-3.4598-4.1156-5.2076-6.2467-2.081-2.5377-4.2497-4.9771-6.2112-7.4161-1.9532-2.4249-3.6787-4.9076-5.2743-7.5759-1.3791-2.3061-2.4634-4.7402-3.1571-7.3285-1.0446-3.8972-1.1983-8.1039-.6714-12.3869.4077-3.3142,1.0825-6.5576,1.7353-9.828,1.8213-9.1011,3.0298-17.4218,7.9027-24.9956,3.3148-5.1522,8.0907-9.3515,13.3116-12.4548,5.1885-3.0801,10.872-5.1712,16.8775-6.6705,5.6552-1.405,11.6771-2.4303,17.5914-3.054,9.2549-.976,18.0881.7607,26.191,4.5922,8.1106,3.8351,15.1164,9.9472,19.8418,17.6222,5.3488,8.7084,7.0321,19.0077,8.1428,29.7209Z"/><path class="cls-1" d="m120.0885,55.7299c.3668,2.9591,1.0176,5.6365,1.2295,8.4251.5218,6.8656-1.2285,14.3231-5.0474,20.4875-2.595,4.1544-5.2954,7.6344-7.267,11.601-1.878,3.7785-3.8202,7.277-7.2003,10.4799-3.9438,3.7326-8.9252,6.5001-14.5133,7.6749-3.746.7875-7.5227.9427-11.1646.5937-2.3414-.2243-4.6182-.7113-7.0284-1.1255-3.0796-.5294-6.2468-1.0767-9.4174-1.5516-1.8175-.2737-3.6161-.501-5.3757-.798-8.2611-1.3945-16.7898-3.6011-22.456-10.2164-1.705-1.9905-3.2873-4.0891-4.9917-6.1814-2.0297-2.4916-4.2009-4.8342-6.1745-7.1471-1.9659-2.2997-3.714-4.6383-5.3511-7.1687-1.4296-2.2099-2.5427-4.551-3.2389-7.0593-1.052-3.7902-1.1442-7.9113-.5283-12.1019.4747-3.229,1.2081-6.3888,1.8644-9.5972,1.8326-8.9362,2.5641-17.0938,7.2768-24.6104,3.1929-5.0925,7.9481-9.1851,13.114-12.1406,5.1356-2.9336,10.7414-4.8536,16.6467-6.2543,5.5658-1.3124,11.4897-2.3284,17.2524-3.0602,8.8972-1.1296,17.4221.4004,25.3254,4.0128,7.8895,3.606,14.7305,9.4877,19.2723,16.9376,5.1476,8.4673,6.4926,18.4702,7.7731,28.8001Z"/><path class="cls-1" d="m118.5998,54.3278c.4227,2.9092,1.1981,5.5011,1.5092,8.2331.7651,6.7174-.8615,14.1791-4.689,20.267-2.6148,4.1227-5.2834,7.5098-7.0526,11.5276-1.662,3.7741-3.3258,7.3048-6.5873,10.5569-3.8051,3.7888-8.7268,6.5694-14.292,7.6396-3.7207.7155-7.4539.7583-11.0141.2847-2.2935-.305-4.5039-.8831-6.8637-1.3592-2.9781-.6008-6.0696-1.1843-9.1783-1.6385-1.7788-.2614-3.5407-.4561-5.2641-.716-8.0547-1.2152-16.5491-3.0356-21.9767-9.6757-1.6178-1.9792-3.1147-4.0626-4.7759-6.1159-1.9783-2.4457-4.1519-4.6915-6.1378-6.8783-1.9786-2.1745-3.7506-4.369-5.4276-6.7615-1.4816-2.1136-2.6225-4.3618-3.321-6.7901-1.0595-3.6832-1.0904-7.7187-.385-11.8168.5412-3.1438,1.3336-6.2202,1.9932-9.3665,1.8441-8.7712,2.0988-16.7655,6.6511-24.2251,3.0712-5.0328,7.8054-9.0187,12.9164-11.8264,5.0826-2.7873,10.6108-4.536,16.4159-5.8381,5.4762-1.22,11.3017-2.225,16.9133-3.0664,8.5389-1.2802,16.7559.0402,24.4599,3.4332,7.6684,3.3773,14.3446,9.0285,18.7028,16.2531,4.9463,8.2261,5.9583,17.9336,7.4033,27.8793Z"/><path class="cls-1" d="m117.1112,52.9257c.4797,2.8595,1.3783,5.3657,1.7889,8.0412,1.008,6.5691-.482,14.0432-4.3306,20.0465-2.6262,4.0965-5.2735,7.3829-6.8384,11.4541-1.4482,3.7675-2.8313,7.3326-5.9744,10.6338-3.6663,3.8451-8.528,6.639-14.0705,7.6044-3.6953.6438-7.3854.5736-10.8636-.0242-2.2455-.386-4.3894-1.0541-6.6992-1.5929-2.8763-.671-5.8923-1.292-8.9389-1.7254-1.7402-.2493-3.4654-.4113-5.1526-.6341-7.8479-1.0366-16.3097-2.4685-21.4974-9.135-1.5311-1.9675-2.9421-4.0361-4.5601-6.0506-1.9269-2.3996-4.103-4.5487-6.1011-6.6094-1.9913-2.0492-3.7887-4.0991-5.5042-6.3541-1.5346-2.0173-2.7021-4.1727-3.4029-6.521-1.0672-3.5762-1.0372-7.526-.2418-11.5317.6073-3.0585,1.4591-6.0515,2.122-9.1359,1.8557-8.6061,1.6339-16.4369,6.0254-23.8398,2.9498-4.9728,7.6628-8.8523,12.7188-11.5121,5.0296-2.641,10.4801-4.2184,16.1851-5.422,5.3867-1.1274,11.1133-2.1197,16.5743-3.0725,8.1799-1.4271,16.0895-.3197,23.5944,2.8537,7.4468,3.1488,13.9585,8.5691,18.1332,15.5685,4.7451,7.9848,5.4295,17.3974,7.0336,26.9585Z"/><path class="cls-1" d="m115.6225,51.5236c.5381,2.8101,1.5585,5.2303,2.0685,7.8492,1.2506,6.4209-.1146,13.8995-3.972,19.8261-2.6458,4.065-5.2661,7.254-6.6242,11.3805-1.237,3.759-2.3368,7.3605-5.3614,10.7109-3.5274,3.9013-8.3294,6.7088-13.849,7.5692-3.67.572-7.3168.3885-10.7133-.3333-2.1975-.467-4.2748-1.2241-6.5344-1.8265-2.7746-.7398-5.7151-1.3997-8.6997-1.8124-1.7016-.2371-3.39-.3667-5.0411-.5522-7.6409-.8587-16.0714-1.8996-21.0181-8.5941-1.4448-1.9554-2.7696-4.0097-4.3442-5.9852-1.8757-2.3536-4.0542-4.406-6.0645-6.3406-2.0039-1.924-3.8284-3.8288-5.5808-5.947-1.5889-1.9204-2.782-3.9834-3.4848-6.2517-1.075-3.4692-.9845-7.3332-.0986-11.2467.6731-2.9731,1.5846-5.8827,2.2509-8.9051,1.8671-8.4412,1.1694-16.1079,5.3996-23.4546,2.8286-4.9125,7.5201-8.6859,12.5212-11.1979,4.9767-2.4945,10.3495-3.9008,15.9543-5.0058,5.2972-1.0349,10.9243-2.0122,16.2353-3.0786,7.8205-1.5702,15.4227-.6792,22.7287,2.2742,7.2252,2.9207,13.5727,8.1097,17.5638,14.8839,4.5439,7.7437,4.9064,16.8614,6.6638,26.0377Z"/><path class="cls-1" d="m114.1338,50.1215c.5981,2.7607,1.7385,5.0949,2.3482,7.6573,1.4927,6.2726.2524,13.7556-3.6136,19.6056-2.6655,4.0333-5.2617,7.1234-6.4098,11.307-1.0287,3.7489-1.8424,7.3883-4.7485,10.7878-3.3887,3.9576-8.1306,6.7789-13.6276,7.534-3.6446.5007-7.2482.2032-10.5628-.6422-2.1496-.5484-4.1603-1.3931-6.3698-2.0603-2.6729-.8071-5.5378-1.5073-8.4605-1.8993-1.663-.2248-3.3145-.3222-4.9296-.4702-7.4336-.6816-15.8346-1.3293-20.5387-8.0534-1.359-1.9426-2.5971-3.9832-4.1284-5.9199-1.8243-2.3075-4.0053-4.2631-6.0277-6.0716-2.0167-1.7988-3.8698-3.5579-5.6575-5.5398-1.6445-1.8231-2.8619-3.7941-3.5668-5.9825-1.083-3.3621-.9323-7.1405.0447-10.9617.7383-2.8878,1.71-5.714,2.3797-8.6743,1.8786-8.2762.7053-15.7788,4.7739-23.0694,2.7078-4.8521,7.3774-8.5194,12.3236-10.8836,4.9238-2.3482,10.2189-3.5832,15.7235-4.5896,5.2077-.9425,10.735-1.9026,15.8962-3.0848,7.461-1.7091,14.7558-1.0384,21.8632,1.6946,7.0033,2.693,13.1868,7.6504,16.9943,14.1995,4.3427,7.5024,4.3894,16.3253,6.294,25.1168Z"/><path class="cls-1" d="m112.6452,48.7195c.6596,2.7111,1.9183,4.9594,2.6279,7.4653,1.7343,6.1243.6191,13.6116-3.2553,19.3851-2.6853,4.0017-5.2607,6.9916-6.1954,11.2335-.8237,3.7376-1.348,7.4161-4.1356,10.8647-3.2499,4.014-7.9318,6.8494-13.4061,7.4988-3.6191.4294-7.1797.0175-10.4124-.9512-2.1016-.6299-4.0459-1.5608-6.2052-2.2939-2.5715-.873-5.3606-1.615-8.2212-1.9862-1.6244-.2127-3.239-.278-4.8181-.3884-7.2262-.5053-15.5996-.7573-20.0594-7.5126-1.2738-1.9294-2.4246-3.9567-3.9125-5.8544-1.773-2.2616-3.9565-4.1204-5.9911-5.8028-2.0293-1.6736-3.9127-3.2859-5.7341-5.1326-1.7015-1.7251-2.9419-3.6048-3.6487-5.7133-1.0912-3.255-.8808-6.9479.1879-10.6767.8031-2.8025,1.8355-5.5452,2.5085-8.4435,1.8901-8.1113.2417-15.4494,4.1483-22.6842,2.5872-4.7914,7.2347-8.3531,12.1259-10.5694,4.8709-2.2017,10.0883-3.2656,15.4927-4.1734,5.1183-.8499,10.5456-1.79,15.5572-3.0909,7.1015-1.8435,14.0886-1.3972,20.9977,1.1151,6.781,2.4657,12.8007,7.191,16.4246,13.5148,4.1416,7.2613,3.8786,15.7888,5.9244,24.1962Z"/><path class="cls-1" d="m111.1565,47.3174c.7231,2.6613,2.0979,4.8241,2.9076,7.2734,1.9756,5.9761.9858,13.4674-2.8968,19.1646-2.7054,3.9699-5.2634,6.8591-5.9812,11.16-.6218,3.7258-.8535,7.4438-3.5226,10.9416-3.1111,4.0703-7.7331,6.9201-13.1847,7.4637-3.5937.3583-7.1109-.1685-10.262-1.2603-2.0535-.7115-3.9317-1.7274-6.0405-2.5276-2.4704-.9374-5.1833-1.7226-7.9819-2.073-1.5858-.2005-3.1635-.234-4.7066-.3065-7.0185-.3301-15.3667-.1837-19.5801-6.9719-1.189-1.9158-2.252-3.9302-3.6966-5.7891-1.7217-2.2155-3.9077-3.9775-5.9544-5.5338-2.0421-1.5484-3.9571-3.0128-5.8108-4.7253-1.7598-1.6259-3.0221-3.4156-3.7306-5.4442-1.0996-3.1478-.8299-6.7553.3311-10.3917.8675-2.7172,1.9609-5.3764,2.6375-8.2128,1.9015-7.9462-.2216-15.1195,3.5223-22.2988,2.467-4.7307,7.0921-8.1867,11.9284-10.2552,4.8179-2.0553,9.9575-2.948,15.262-3.7572,5.0287-.7575,10.3564-1.6745,15.218-3.0971,6.7426-1.973,13.4212-1.7554,20.1322.5356,6.5585,2.2389,12.4148,6.7316,15.8551,12.8303,3.9404,7.02,3.3743,15.2513,5.5546,23.2753Z"/><path class="cls-1" d="m109.6678,45.9153c.7887,2.6112,2.2774,4.6888,3.1873,7.0815,2.2164,5.8281,1.3521,13.3231-2.5383,18.9441-2.7257,3.938-5.2701,6.7265-5.7669,11.0864-.4232,3.7139-.3591,7.4717-2.9097,11.0186-2.9724,4.1266-7.5342,6.9911-12.9632,7.4285-3.5682.2875-7.0421-.3548-10.1116-1.5693-2.0054-.7934-3.8181-1.8926-5.8759-2.7612-2.3699-1.0003-5.0061-1.8303-7.7427-2.16-1.5471-.1882-3.0879-.1901-4.5951-.2246-6.8107-.1559-15.136.3913-19.1007-6.4311-1.1051-1.9017-2.0794-3.9037-3.4808-5.7236-1.6703-2.1696-3.8587-3.8348-5.9177-5.2651-2.0548-1.4231-4.0028-2.7381-5.8874-4.318-1.8195-1.5254-3.1024-3.2262-3.8126-5.175-1.1081-3.0407-.7795-6.563.4743-10.1067.9315-2.6321,2.0865-5.2077,2.7664-7.982,1.913-7.7813-.6842-14.7896,2.8967-21.9136,2.3471-4.6696,6.9494-8.0203,11.7307-9.9409,4.765-1.909,9.8269-2.6304,15.0311-3.3411,4.9392-.6649,10.168-1.5555,14.8791-3.1032,6.3846-2.0975,12.7535-2.1131,19.2665-.044,6.3359,2.0128,12.029,6.2723,15.2857,12.1458,3.7391,6.7788,2.8765,14.7124,5.1848,22.3545Z"/><path class="cls-1" d="m108.1791,44.5132c.8566,2.5603,2.4567,4.5536,3.467,6.8895,2.4569,5.6805,1.7183,13.1787-2.1799,18.7237-2.7459,3.9059-5.2807,6.5942-5.5526,11.0128-.2277,3.7025.1354,7.4996-2.2967,11.0957-2.8336,4.1829-7.3354,7.0624-12.7418,7.3933-3.5427.2168-6.973-.5416-9.9611-1.8784-1.9571-.8755-3.7052-2.0566-5.7113-2.9948-2.2701-1.0617-4.8288-1.938-7.5034-2.247-1.5086-.176-3.0123-.1464-4.4836-.1426-6.603.0171-14.9081.9677-18.6214-5.8904-1.0218-1.8872-1.9069-3.8772-3.2649-5.6582-1.619-2.1235-3.8099-3.6921-5.8811-4.9962-2.0674-1.2979-4.0497-2.4619-5.964-3.9109-1.8802-1.4231-3.1829-3.0367-3.8945-4.9057-1.117-2.9333-.73-6.371.6175-9.8216.9948-2.5474,2.212-5.039,2.8952-7.7513,1.9245-7.6163-1.1462-14.4592,2.271-21.5284,2.2276-4.6085,6.8067-7.8539,11.5331-9.6266,4.7121-1.7626,9.6963-2.3129,14.8004-2.9249,4.8496-.5725,9.9805-1.4329,14.54-3.1095,6.0281-2.2166,12.0854-2.4699,18.401-.6234,6.1127,1.7872,11.6429,5.813,14.7161,11.4612,3.5379,6.5376,2.3854,14.1714,4.815,21.4337Z"/><path class="cls-1" d="m106.6905,43.1111c.9268,2.5084,2.6358,4.4186,3.7467,6.6976,2.6968,5.5329,2.074,13.0268-1.8216,18.5032-2.7737,3.8687-5.2953,6.463-5.3381,10.9393-.0354,3.6918.6297,7.5274-1.684,11.1726-2.6948,4.2392-7.1365,7.134-12.5203,7.3581-3.5172.1463-6.9038-.7286-9.8106-2.1873-1.9087-.9579-3.5931-2.2193-5.5466-3.2285-2.1713-1.1218-4.6516-2.0456-7.2642-2.3339-1.47-.1638-2.9368-.1032-4.3722-.0608-6.3952.1891-14.6831,1.5454-18.142-5.3496-.9393-1.8724-1.7343-3.8507-3.0491-5.5928-1.5677-2.0775-3.761-3.5492-5.8444-4.7273-2.0801-1.1727-4.0974-2.1838-6.0405-3.5036-1.9421-1.3191-3.2636-2.8473-3.9766-4.6366-1.126-2.8259-.6809-6.1793.7608-9.5365,1.0577-2.463,2.3375-4.8703,3.0241-7.5206,1.936-7.4513-1.6076-14.1287,1.6452-21.1431,2.1086-4.5472,6.6641-7.6875,11.3355-9.3125,4.6591-1.6162,9.5657-1.9952,14.5696-2.5086,4.7601-.48,9.7948-1.3059,14.2009-3.1157,5.6739-2.3304,11.4172-2.8261,17.5355-1.2029,5.8895,1.5625,11.257,5.3536,14.1466,10.7766,3.3367,6.2964,1.901,13.6277,4.4453,20.5129Z"/><path class="cls-1" d="m105.2018,41.709c1,2.4551,2.8148,4.2836,4.0263,6.5057,2.9366,5.3859,2.441,12.8827-1.463,18.2826-2.7936,3.837-5.3138,6.3334-5.1239,10.8659.1543,3.6826,1.1242,7.5552-1.071,11.2496-2.556,4.2954-6.9377,7.2059-12.2988,7.3228-3.4918.0761-6.8343-.9157-9.6602-2.4962-1.8602-1.0405-3.4821-2.3807-5.3821-3.4623-2.0735-1.1804-4.4742-2.1532-7.0249-2.4208-1.4313-.1515-2.8612-.0601-4.2606.0212-6.1877.3596-14.4615,2.124-17.6627-4.8089-.8576-1.8575-1.5618-3.8243-2.8333-5.5274-1.5163-2.0315-3.7121-3.4065-5.8076-4.4584-2.0928-1.0475-4.1458-1.9037-6.1173-3.0964-2.0045-1.2128-3.3443-2.6578-4.0584-4.3674-1.1354-2.7184-.6327-5.9881.904-9.2515,1.1201-2.3787,2.4629-4.7016,3.1529-7.2898,1.9475-7.2864-2.0682-13.7978,1.0195-20.7579,1.9899-4.4856,6.5215-7.5211,11.1378-8.9982,4.6063-1.4698,9.4351-1.6777,14.3389-2.0925,4.6707-.3875,9.6116-1.1743,13.8618-3.1217,5.3227-2.4388,10.7488-3.1815,16.67-1.7826,5.666,1.3387,10.8711,4.8942,13.5771,10.0921,3.1355,6.0552,1.4231,13.0803,4.0755,19.5921Z"/><path class="cls-1" d="m103.7131,40.3069c1.0762,2.3999,2.9937,4.1489,4.306,6.3138,3.1761,5.239,2.808,12.7386-1.1045,18.0621-2.8135,3.8052-5.3358,6.2057-4.9097,10.7923.3416,3.6753,1.6187,7.5831-.458,11.3266-2.4172,4.3518-6.739,7.2782-12.0774,7.2877-3.4663.0061-6.7644-1.1033-9.5097-2.8053-1.8115-1.1231-3.3724-2.5407-5.2174-3.6959-1.9772-1.238-4.2971-2.2609-6.7857-2.5077-1.3927-.1394-2.7858-.0175-4.1492.103-5.9803.5289-14.2433,2.7035-17.1833-4.2681-.7769-1.8423-1.3892-3.7977-2.6174-5.462-1.465-1.9855-3.6633-3.2637-5.771-4.1896-2.1055-.9222-4.1944-1.6213-6.1939-2.6891-2.0674-1.1042-3.4253-2.4681-4.1403-4.0982-1.1452-2.6107-.5852-5.7975,1.0472-8.9665,1.182-2.2948,2.5884-4.5328,3.2818-7.059,1.9589-7.1214-2.5282-13.4668.3937-20.3727,1.8718-4.424,6.3788-7.3547,10.9403-8.6839,4.5532-1.3235,9.3044-1.3601,14.108-1.6763,4.5812-.295,9.4317-1.0379,13.5228-3.128,4.9753-2.5417,10.0802-3.5356,15.8043-2.362,5.4426,1.1158,10.4853,4.4349,13.0077,9.4075,2.9342,5.814.9514,12.5288,3.7057,18.6713Z"/><path class="cls-1" d="m102.2244,38.9049c1.1555,2.3424,3.1689,4.0167,4.5858,6.1218,3.4063,5.0987,3.1749,12.5945-.7462,17.8417-2.8333,3.7734-5.3609,6.0805-4.6953,10.7187.5267,3.6699,2.1131,7.6109.1549,11.4035-2.2785,4.4081-6.5405,7.3594-11.8559,7.2525-3.4412-.0582-6.6944-1.2909-9.3593-3.1143-1.7624-1.2059-3.2642-2.6994-5.0529-3.9296-1.8822-1.2945-4.1197-2.3686-6.5464-2.5946-1.3541-.1271-2.7104.0249-4.0376.185-5.7736.6966-14.0291,3.2834-16.704-3.7274-.697-1.827-1.2167-3.7713-2.4016-5.3966-1.4136-1.9394-3.6144-3.1209-5.7342-3.9207-2.1182-.7971-4.243-1.3369-6.2705-2.2819-2.1305-.993-3.5066-2.2783-4.2224-3.829-1.1551-2.5028-.5381-5.6074,1.1905-8.6815,1.2435-2.2114,2.7139-4.364,3.4107-6.8282,1.9704-6.9565-2.9874-13.1356-.2321-19.9875,1.7541-4.3621,6.2362-7.1883,10.7426-8.3697,4.5004-1.177,9.1739-1.0425,13.8773-1.2601,4.4917-.2025,9.2563-.8963,13.1838-3.1341,4.633-2.6398,9.4115-3.8885,14.9388-2.9415,5.2189.8941,10.0992,3.9755,12.4381,8.7229,2.7331,5.5728.4856,11.9717,3.3359,17.7506Z"/><path class="cls-1" d="m100.7358,37.5027c1.2379,2.282,3.3486,3.8818,4.8654,5.9299,3.6482,4.9514,3.5418,12.4505-.3877,17.6212-2.8532,3.7417-5.3889,5.9583-4.481,10.6453.7102,3.6671,2.6075,7.6387.7678,11.4804-2.1397,4.4644-6.342,7.4299-11.6345,7.2173-3.4158-.1294-6.6203-1.4833-9.2089-3.4233-1.7108-1.2919-3.1576-2.8572-4.8881-4.1632-1.7891-1.3502-3.9426-2.4763-6.3072-2.6815-1.3155-.115-2.6352.0668-3.9261.2669-5.5675.8628-13.8192,3.8634-16.2247-3.1867-.6181-1.8118-1.0442-3.7448-2.1857-5.3312-1.3624-1.8934-3.5655-2.9781-5.6976-3.6518-2.1309-.6719-4.2909-1.0504-6.3471-1.8747-2.1933-.8793-3.5881-2.0883-4.3043-3.5598-1.1656-2.3946-.4919-5.4182,1.3336-8.3965,1.3048-2.1285,2.8395-4.1952,3.5396-6.5975,1.9819-6.7914-3.433-12.7993-.8578-19.6022,1.6449-4.2973,6.0935-7.0219,10.5451-8.0554,4.4474-1.0307,9.0431-.7249,13.6464-.8439,4.4021-.1101,9.0866-.7494,12.8447-3.1403,4.2967-2.7336,8.743-4.24,14.0733-3.5211,4.9953.6738,9.7133,3.5162,11.8686,8.0384,2.5318,5.3317.025,11.4083,2.9662,16.8297Z"/><path class="cls-1" d="m99.2471,36.1007c1.324,2.2178,3.5285,3.7466,5.1451,5.7379,3.89,4.804,3.9088,12.3065-.0293,17.4007-2.873,3.7099-5.4189,5.839-4.2667,10.5717.8927,3.6667,3.102,7.6665,1.3808,11.5574-2.0009,4.5208-6.1435,7.5004-11.413,7.1821-3.3907-.2006-6.551-1.6688-9.0585-3.7323-1.6624-1.3733-3.0531-3.014-4.7235-4.3969-1.6977-1.4054-3.7653-2.5838-6.0679-2.7684-1.2769-.1027-2.5602.1085-3.8147.3488-5.3622,1.0277-13.6136,4.4432-15.7453-2.646-.5403-1.7966-.8716-3.7181-1.9699-5.2657-1.311-1.8474-3.5166-2.8354-5.6608-3.3829-2.1437-.5467-4.338-.7617-6.4238-1.4675-2.2554-.7631-3.6715-1.8973-4.3862-3.2906-1.1794-2.2847-.4461-5.2297,1.4769-8.1115,1.3654-2.0462,2.9648-4.0265,3.6683-6.3667,1.9935-6.6264-3.8961-12.47-1.4835-19.217,1.5246-4.2368,5.9509-6.8554,10.3474-7.7412,4.3945-.8842,8.9125-.4072,13.4158-.4277,4.3125-.0175,8.9239-.5973,12.5056-3.1464,3.9677-2.8239,8.0737-4.5804,13.2077-4.1006,4.7712.4637,9.3274,3.0568,11.299,7.3539,2.3307,5.0903-.4312,10.8372,2.5965,15.9089Z"/><path class="cls-1" d="m33.6506,61.1065c.7165,1.3135,2.1517,2.3769,4.4682,3.0214,2.1167.589,4.3441.6388,6.5004,1.0602,2.1564.4216,4.3646,1.3127,5.6242,3.1141,1.0549,1.5086,1.2906,3.4184,1.754,5.2003,1.8533,7.1275,10.1079,3.2962,15.266,2.1053,1.2176-.2811,2.4649-.5212,3.7031-.4307,2.2406.1638,4.2204,1.3949,5.8287,2.8553,1.6083,1.4605,2.9449,3.1758,4.5589,4.6305,2.4264,2.1869,5.5426,3.7695,8.908,4.0414,5.2465.4239,9.3295-2.5699,11.1916-7.1469,1.6027-3.9401-.9195-7.9656-1.9937-11.6344-1.3983-4.7755,1.1595-6.82,4.0524-10.4981,3.9465-5.0179,3.8027-12.5237-.3292-17.1803-1.7163-1.9344-4.0112-3.3967-5.4248-5.546-3.111-4.7306-.0972-10.139-2.2267-14.9881-1.7881-4.0719-6.1803-6.4318-10.7295-6.6694-4.9355-.2576-8.695,1.7682-12.3421,4.6802-3.3967,2.712-7.9436,3.2276-12.1667,3.1526-4.403-.0782-8.8433-.7264-13.1848.0115-4.3417.7379-8.7455,3.2506-10.1499,7.427-2.2499,6.6909,4.1142,12.3702,2.1093,18.8317-.7069,2.2782-2.3712,4.1714-3.7973,6.136-2.0208,2.7842-2.8079,5.6491-1.6201,7.8264Z"/></g></g></svg>