<?xml version="1.0" encoding="UTF-8"?><svg id="Layer_2" xmlns="http://www.w3.org/2000/svg" viewBox="0 0 863.8257 153.938"><defs><style>.cls-1{fill:#f6f6f6;}</style></defs><g id="Layer_1-2"><g><path class="cls-1" d="m96.8125,30.9795v108.4419H0V0h65.8325l30.98,30.9795ZM54.2148,11.6172h-11.6172v116.187h11.6172V11.6172Z"/><path class="cls-1" d="m201.4414,106.4624v32.9551l-65.9009.0039-30.98-30.9805V0h65.8315l30.98,30.9795v21.272h-42.5972V11.6172h-11.6167v52.2534h11.6167v11.6172h-11.6167v52.3164h11.6167v-40.7891h23.2192l19.4473,19.4473Z"/><path class="cls-1" d="m303.9346,30.9795v21.272h-42.5977V11.6172h-11.6074v52.2534h11.6074v11.6172h-11.6074v63.9336h-11.6172l-30.9805-30.9805V0h65.8223l30.9805,30.9795Z"/><path class="cls-1" d="m406.5146,30.9795v108.4419h-42.5977v-63.8711h-11.6172v63.8711h-11.6172l-30.9805-30.9805V0h65.833l30.9795,30.9795Zm-42.5977-19.3623h-11.6172v52.3159h11.6172V11.6172Z"/><path class="cls-1" d="m511.0757,30.9844v108.4292l-65.8315.0078-30.9805-30.9805V0h42.5972v127.7983h11.6172V.0039h11.6191l30.9785,30.9805Z"/><path class="cls-1" d="m615.6401,106.521v32.9004h-65.834l-30.9805-30.9805V0h42.5977v127.8042h11.6172v-40.6992h23.1836l19.416,19.416Z"/><path class="cls-1" d="m676.4761,0v11.6172h-11.6172v127.8042h-11.6191l-30.9785-30.9805V11.6172h-11.6191V0h65.834Z"/><path class="cls-1" d="m664.8594,153.938v-14.5169h156.3648v14.5169h-156.3648Z"/><path class="cls-1" d="m863.8257,30.9883v108.4331h-42.5996V11.626h-11.6172V.0078h23.2344l30.9824,30.9805Z"/></g></g></svg>